M48
; DRILL file {KiCad (5.1.7)-1} date 04/16/21 09:22:04
; FORMAT={-:-/ absolute / inch / decimal}
; #@! TF.CreationDate,2021-04-16T09:22:04+09:00
; #@! TF.GenerationSoftware,Kicad,Pcbnew,(5.1.7)-1
FMAT,2
INCH
T1C0.0118
T2C0.0315
T3C0.0354
T4C0.0370
T5C0.0394
T6C0.0512
T7C0.0700
T8C0.0394
T9C0.1260
%
G90
G05
T1
X3.1594Y-2.3031
X3.1594Y-2.4803
X3.1634Y-1.5354
X3.2441Y-1.7539
X3.2441Y-2.1043
X3.3858Y-1.6256
X3.4094Y-1.6524
X3.4843Y-1.7126
X3.4843Y-1.811
X3.4843Y-2.1457
X3.4843Y-2.2638
X3.4843Y-2.3622
X3.5024Y-4.1925
X3.5039Y-2.0276
X3.5287Y-1.6256
X3.5291Y-1.3417
X3.5453Y-2.2075
X3.5453Y-2.3031
X3.5453Y-2.4606
X3.5591Y-1.5354
X3.5591Y-1.8661
X3.5626Y-1.9921
X3.565Y-4.7929
X3.5728Y-2.1043
X3.6776Y-4.2406
X3.6776Y-4.8969
X3.6827Y-2.1311
X3.6976Y-1.2417
X3.6976Y-1.6524
X3.7008Y-2.2638
X3.7008Y-2.3622
X3.7012Y-3.9075
X3.7012Y-4.8728
X3.7205Y-2.0276
X3.7205Y-2.1063
X3.7248Y-3.8839
X3.7248Y-4.9803
X3.7402Y-1.2795
X3.7402Y-1.4764
X3.7484Y-4.2717
X3.7484Y-4.5335
X3.7492Y-3.1917
X3.7492Y-4.1925
X3.772Y-4.2169
X3.772Y-4.5079
X3.772Y-4.6417
X3.7728Y-2.7953
X3.7728Y-3.374
X3.7965Y-2.5886
X3.7965Y-2.75
X3.7965Y-3.6398
X3.7965Y-3.8602
X3.7965Y-4.1693
X3.7965Y-4.4862
X3.7965Y-4.7016
X3.7965Y-4.7929
X3.8189Y-2.2638
X3.8189Y-2.3622
X3.8201Y-2.8646
X3.8201Y-4.8492
X3.8248Y-1.8976
X3.8248Y-1.9528
X3.8386Y-1.2795
X3.8386Y-1.4764
X3.8386Y-2.6378
X3.8386Y-2.7953
X3.8579Y-1.7122
X3.8579Y-1.9055
X3.8618Y-2.152
X3.8618Y-2.4606
X3.878Y-2.0276
X3.878Y-2.1063
X3.9154Y-1.1417
X3.9154Y-1.3205
X3.9154Y-1.9882
X3.9154Y-2.2075
X3.9413Y-3.4961
X3.9413Y-3.6161
X3.9413Y-3.6866
X3.9413Y-4.1201
X3.9413Y-4.1929
X3.9413Y-4.2406
X3.9413Y-4.311
X3.9413Y-4.626
X3.9413Y-4.7461
X3.9413Y-4.8232
X3.9543Y-2.5362
X3.9567Y-2.6378
X3.9567Y-2.7953
X3.9567Y-2.9921
X3.9764Y-1.4764
X3.9764Y-1.7126
X3.9764Y-1.811
X3.9764Y-2.0276
X3.9764Y-2.1063
X3.9961Y-2.2441
X3.9961Y-2.3425
X4.0055Y-2.75
X4.0354Y-4.8728
X4.0531Y-1.5354
X4.0531Y-2.128
X4.0591Y-2.9587
X4.0591Y-3.1299
X4.0748Y-2.7953
X4.0968Y-3.6865
X4.0969Y-3.4197
X4.0969Y-3.4961
X4.0969Y-4.4331
X4.0969Y-4.5098
X4.1031Y-1.6256
X4.1031Y-1.7224
X4.1142Y-2.2441
X4.1142Y-2.3425
X4.1213Y-2.3988
X4.1213Y-2.5886
X4.1339Y-1.4764
X4.1449Y-2.4988
X4.1449Y-2.6315
X4.1453Y-1.6524
X4.1453Y-1.7224
X4.187Y-1.6807
X4.2126Y-2.3425
X4.2126Y-2.6772
X4.2126Y-2.7953
X4.2126Y-2.9331
X4.2126Y-3.0512
X4.2157Y-1.5736
X4.2504Y-3.4512
X4.2504Y-3.6161
X4.2504Y-3.8094
X4.2504Y-4.3126
X4.2504Y-4.3894
X4.2512Y-3.9484
X4.2512Y-4.1228
X4.2512Y-4.1929
X4.2717Y-4.8969
X4.287Y-3.3744
X4.287Y-3.5925
X4.287Y-3.685
X4.287Y-4.3126
X4.287Y-4.5098
X4.2909Y-1.1413
X4.2913Y-1.7051
X4.311Y-2.3425
X4.311Y-2.4409
X4.311Y-2.5394
X4.3154Y-2.8602
X4.3154Y-3.1299
X4.3307Y-1.1811
X4.3307Y-1.378
X4.3504Y-2.7953
X4.3504Y-2.9331
X4.3504Y-3.0512
X4.3504Y-3.2087
X4.4059Y-3.4961
X4.4059Y-3.998
X4.4059Y-4.0343
X4.4059Y-4.0783
X4.4059Y-4.4937
X4.4059Y-4.6236
X4.4059Y-4.7461
X4.4059Y-4.8232
X4.4087Y-2.75
X4.4094Y-1.1614
X4.4094Y-2.1748
X4.4295Y-3.3252
X4.4295Y-3.3705
X4.4295Y-3.8071
X4.4417Y-4.3591
X4.4417Y-4.4354
X4.4417Y-4.5732
X4.4417Y-4.9803
X4.4469Y-4.0843
X4.4469Y-4.1693
X4.4567Y-2.2717
X4.4567Y-2.3992
X4.4815Y-1.4764
X4.4815Y-2.75
X4.4882Y-3.0512
X4.4882Y-3.2087
X4.4882Y-3.3268
X4.4927Y-2.9856
X4.5055Y-1.5484
X4.5055Y-2.8575
X4.5614Y-3.6161
X4.5614Y-3.6862
X4.5614Y-3.8839
X4.5614Y-4.5744
X4.5614Y-4.6256
X4.5614Y-4.7996
X4.5614Y-4.8728
X4.5705Y-3.5087
X4.598Y-4.624
X4.598Y-4.7484
X4.598Y-4.813
X4.6024Y-3.9504
X4.6024Y-4.2752
X4.6063Y-2.3031
X4.626Y-1.378
X4.626Y-3.3268
X4.626Y-3.7402
X4.626Y-3.878
X4.626Y-4.0551
X4.626Y-4.1732
X4.626Y-4.3898
X4.6354Y-3.4197
X4.6654Y-2.6969
X4.6654Y-2.815
X4.6654Y-2.9134
X4.7047Y-2.4606
X4.7047Y-2.5591
X4.7169Y-4.7461
X4.7169Y-4.8492
X4.7217Y-4.624
X4.7217Y-4.4996
X4.7441Y-4.8728
X4.761Y-4.0339
X4.761Y-4.2406
X4.761Y-4.4087
X4.761Y-4.5744
X4.7622Y-3.5201
X4.7622Y-3.6398
X4.7622Y-3.685
X4.7638Y-3.3268
X4.7638Y-3.7402
X4.7846Y-3.8071
X4.7846Y-3.9075
X4.7846Y-4.1339
X4.7858Y-3.4701
X4.7858Y-3.6161
X4.8031Y-2.3031
X4.8031Y-2.4606
X4.8031Y-2.6969
X4.8031Y-2.815
X4.8031Y-2.9134
X4.8094Y-3.3701
X4.8094Y-3.5925
X4.8098Y-4.3567
X4.8098Y-4.5335
X4.8228Y-1.1811
X4.8228Y-1.378
X4.8335Y-4.4067
X4.8335Y-4.5
X4.9016Y-2.8661
X4.9016Y-3.3268
X4.9016Y-3.4646
X4.9016Y-3.6024
X4.9016Y-3.7402
X4.9016Y-3.878
X4.9016Y-4.0551
X4.9016Y-4.4882
X4.9016Y-5.0461
X4.9213Y-2.4606
X4.9213Y-2.5591
X4.939Y-4.2169
X4.9391Y-4.1225
X4.9409Y-2.6969
X4.9409Y-2.815
X4.9409Y-2.9134
X4.9803Y-4.8154
X5.0Y-2.6846
X5.0Y-3.3933
X5.0Y-4.3898
X5.0197Y-1.378
X5.0299Y-2.1748
X5.0299Y-2.6315
X5.0299Y-2.9858
X5.0299Y-3.2256
X5.0299Y-4.4945
X5.0299Y-4.6256
X5.0299Y-4.7488
X5.0299Y-4.8492
X5.0303Y-1.7055
X5.0394Y-3.4646
X5.0394Y-3.6024
X5.0394Y-3.7402
X5.0394Y-3.878
X5.0394Y-4.0551
X5.0394Y-4.1929
X5.0583Y-2.3622
X5.0583Y-2.413
X5.0583Y-2.5433
X5.0583Y-3.0465
X5.0831Y-1.7055
X5.0831Y-3.8331
X5.1154Y-1.1614
X5.1154Y-1.3169
X5.1154Y-1.774
X5.1181Y-2.4213
X5.1181Y-2.5394
X5.1457Y-3.1512
X5.1478Y-4.3069
X5.1535Y-2.2075
X5.1535Y-2.3028
X5.1535Y-2.576
X5.1535Y-2.7594
X5.1539Y-1.1614
X5.1539Y-2.1502
X5.1575Y-2.815
X5.1575Y-2.9134
X5.1906Y-3.1984
X5.1906Y-4.4071
X5.1906Y-4.6256
X5.1906Y-4.839
X5.2142Y-2.6567
X5.2142Y-3.8783
X5.2142Y-4.5339
X5.2165Y-1.378
X5.2378Y-2.6319
X5.2378Y-3.902
X5.2614Y-2.4213
X5.2614Y-3.9256
X5.2874Y-3.2256
X5.2874Y-3.4197
X5.2874Y-3.9504
X5.2874Y-4.2752
X5.2933Y-2.3622
X5.2933Y-2.5118
X5.2953Y-2.2244
X5.2953Y-2.3031
X5.312Y-3.3701
X5.312Y-4.5797
X5.3122Y-4.9803
X5.315Y-2.815
X5.3228Y-2.8661
X5.3228Y-3.1512
X5.3358Y-3.4843
X5.3358Y-4.485
X5.3543Y-2.4409
X5.3602Y-3.5079
X5.3602Y-4.461
X5.3846Y-3.5315
X5.3846Y-4.437
X5.3874Y-2.865
X5.3874Y-3.4579
X5.4134Y-1.1811
X5.4134Y-1.378
X5.4134Y-2.815
X5.4134Y-2.9146
X5.4134Y-3.4331
X5.4193Y-2.4252
X5.4193Y-2.5098
X5.4528Y-2.4843
X5.4528Y-2.5748
X5.4598Y-3.3346
X5.478Y-2.5472
X5.478Y-2.6319
X5.4807Y-2.7594
X5.4835Y-3.3075
X5.4921Y-2.2244
X5.4921Y-2.3031
X5.4921Y-3.748
X5.5512Y-3.0118
X5.5512Y-3.2283
X5.6102Y-1.1811
X5.6102Y-1.378
X5.6142Y-3.7697
X5.6425Y-1.4843
X5.6425Y-1.5992
X5.6516Y-2.4252
X5.6516Y-2.4843
X5.6516Y-2.5472
X5.6516Y-2.6567
X5.6827Y-2.5969
X5.6827Y-2.6846
X5.685Y-3.1752
X5.689Y-2.2244
X5.689Y-2.3031
X5.689Y-3.4843
X5.689Y-3.5827
X5.689Y-4.839
X5.7047Y-4.1545
X5.7047Y-4.8098
X5.7087Y-2.815
X5.7087Y-2.9724
X5.7283Y-4.1331
X5.7283Y-4.7854
X5.7441Y-3.2815
X5.7441Y-3.3346
X5.7441Y-3.4846
X5.752Y-4.1114
X5.752Y-4.7618
X5.7598Y-3.1699
X5.7756Y-4.09
X5.7756Y-4.7382
X5.7795Y-3.1445
X5.7933Y-2.3878
X5.7933Y-2.5433
X5.7992Y-3.1191
X5.7992Y-4.069
X5.7992Y-4.7146
X5.8071Y-1.1811
X5.8071Y-1.378
X5.8189Y-3.0937
X5.8228Y-4.0473
X5.8228Y-4.6906
X5.8268Y-3.4252
X5.8268Y-3.5827
X5.8268Y-3.7205
X5.8465Y-4.0253
X5.8465Y-4.6669
X5.8543Y-2.8138
X5.8543Y-2.9803
X5.8701Y-4.0039
X5.8701Y-4.6417
X5.8858Y-2.2244
X5.8858Y-2.3031
X5.8858Y-2.4606
X5.8858Y-2.6378
X5.8898Y-2.8138
X5.8898Y-2.9803
X5.9016Y-3.3268
X5.9016Y-3.4846
X5.9291Y-3.3059
X5.9449Y-3.4252
X5.9449Y-3.5827
X5.9685Y-4.1445
X5.9685Y-4.4071
X5.9843Y-3.0937
X5.9921Y-4.123
X5.9921Y-4.3831
X6.0039Y-1.1811
X6.0039Y-1.378
X6.0039Y-1.5157
X6.0047Y-3.1189
X6.0157Y-4.1018
X6.0157Y-4.3587
X6.0256Y-3.1445
X6.0394Y-4.0809
X6.0394Y-4.335
X6.0398Y-3.9949
X6.0442Y-3.1699
X6.0594Y-3.7791
X6.063Y-2.3878
X6.063Y-2.4606
X6.063Y-2.6378
X6.063Y-2.815
X6.063Y-3.3071
X6.063Y-3.4252
X6.063Y-3.5827
X6.063Y-4.0594
X6.063Y-4.311
X6.0709Y-3.9114
X6.0827Y-2.2244
X6.0827Y-2.3031
X6.0965Y-3.4846
X6.0984Y-3.9409
X6.1122Y-3.2846
X6.1126Y-3.3244
X6.1614Y-3.8386
X6.1811Y-1.2992
X6.1811Y-2.4606
X6.1811Y-2.6378
X6.1811Y-2.815
X6.1992Y-1.9937
X6.1992Y-2.1748
X6.2008Y-1.1811
X6.2008Y-1.5157
X6.2283Y-1.774
X6.2283Y-2.4449
X6.2283Y-2.7598
X6.2283Y-3.4846
X6.2283Y-4.2638
X6.2283Y-4.9508
X6.253Y-4.437
X6.2531Y-5.0752
X6.2614Y-1.5736
X6.2614Y-3.7673
X6.2776Y-4.4606
X6.2776Y-5.0988
X6.2861Y-3.7362
X6.2862Y-2.6587
X6.2992Y-3.8386
X6.2992Y-3.937
X6.302Y-4.485
X6.302Y-5.1224
X6.3083Y-1.4862
X6.3083Y-1.7043
X6.3106Y-2.6346
X6.3107Y-3.7165
X6.3357Y-3.6974
X6.3358Y-2.6106
X6.3593Y-3.6732
X6.3594Y-4.6161
X6.3602Y-1.5992
X6.3602Y-3.413
X6.3839Y-4.5917
X6.384Y-3.6535
X6.3929Y-1.6256
X6.3929Y-3.4453
X6.3976Y-1.1811
X6.3976Y-1.378
X6.3976Y-1.5157
X6.409Y-3.6339
X6.4091Y-4.5681
X6.4201Y-1.6524
X6.4201Y-3.4713
X6.4345Y-3.6142
X6.4346Y-4.5437
X6.4592Y-3.5945
X6.4594Y-4.5197
X6.4724Y-1.9937
X6.4724Y-3.4535
X6.4838Y-3.5748
X6.4839Y-4.4961
X6.5098Y-3.5551
X6.5098Y-4.4717
X6.5102Y-3.0067
X6.5102Y-3.1189
X6.5126Y-3.1697
X6.5126Y-3.3181
X6.5335Y-4.4469
X6.5354Y-3.5315
X6.5362Y-2.9823
X6.5362Y-3.0937
X6.5362Y-3.1445
X6.5362Y-3.2941
X6.5598Y-1.6807
X6.5598Y-3.9945
X6.5843Y-3.5059
X6.5843Y-5.0496
X6.5945Y-1.1811
X6.5945Y-1.378
X6.6043Y-2.7134
X6.6043Y-3.0461
X6.6102Y-3.2677
X6.6102Y-3.8898
X6.6339Y-2.5
X6.6339Y-2.5591
X6.635Y-2.689
X6.635Y-3.0701
X6.6457Y-3.2185
X6.6457Y-3.7894
X6.6732Y-2.7854
X6.6732Y-2.9146
X6.6732Y-2.9547
X6.6732Y-3.689
X6.6929Y-1.6929
X6.6929Y-1.8898
X6.6929Y-3.7402
X6.6929Y-3.8386
X6.6929Y-3.937
X6.6929Y-4.0354
X6.6929Y-4.1339
X6.6929Y-4.8622
X6.6929Y-5.0
X6.7087Y-2.9094
X6.7087Y-3.5866
X6.7323Y-2.5
X6.7323Y-2.5591
X6.7913Y-1.1811
X6.7913Y-1.378
X6.7913Y-1.5748
X6.7913Y-3.1496
X6.7913Y-3.3661
X6.7913Y-3.5039
X6.7913Y-4.0354
X6.7913Y-4.1339
X6.7913Y-4.2874
X6.8307Y-2.5
X6.8307Y-2.5591
X6.8307Y-4.8622
X6.8307Y-5.0
X6.8307Y-5.365
X6.8339Y-3.0965
X6.8421Y-4.1921
X6.8697Y-3.0965
X6.8697Y-4.1685
X6.8748Y-2.7854
X6.8748Y-2.8646
X6.8898Y-1.6929
X6.9661Y-3.589
X6.9661Y-4.2264
X6.9783Y-2.4449
X6.9783Y-2.5492
X6.9882Y-1.1811
X6.9882Y-1.378
X6.9882Y-1.5748
X6.9882Y-3.3661
X6.9882Y-3.5236
X7.0276Y-3.1693
X7.0276Y-3.9961
X7.0276Y-4.1732
X7.0669Y-1.9094
X7.0669Y-2.4606
X7.0827Y-3.8898
X7.0827Y-4.0965
X7.0866Y-3.7402
X7.1195Y-3.7888
X7.1201Y-3.4213
X7.1201Y-3.5098
X7.1201Y-3.5886
X7.1201Y-3.8858
X7.1299Y-2.4247
X7.1575Y-3.0276
X7.1575Y-3.0945
X7.185Y-1.1811
X7.185Y-1.378
X7.185Y-1.5551
X7.185Y-3.1693
X7.185Y-3.3661
X7.185Y-3.563
X7.185Y-3.7402
X7.185Y-4.1732
X7.2295Y-4.3831
X7.2409Y-3.5102
X7.2409Y-3.689
X7.2409Y-3.7303
X7.2409Y-4.2283
X7.2638Y-2.4606
X7.2756Y-3.8858
X7.2756Y-4.0965
X7.2835Y-1.8701
X7.2835Y-3.563
X7.3228Y-2.7874
X7.3228Y-2.9252
X7.3228Y-3.1693
X7.3299Y-4.3587
X7.3425Y-4.1732
X7.3583Y-2.7402
X7.3583Y-2.8268
X7.3819Y-1.1811
X7.3819Y-1.378
X7.3819Y-1.5551
X7.3819Y-1.6732
X7.3819Y-3.3661
X7.3819Y-3.563
X7.3819Y-3.937
X7.4154Y-3.4535
X7.4154Y-3.5079
X7.4154Y-3.6319
X7.4154Y-3.8839
X7.4154Y-4.0079
X7.4154Y-4.1528
X7.4299Y-4.335
X7.4606Y-2.4606
X7.4803Y-2.7756
X7.4803Y-2.874
X7.4803Y-2.9724
X7.4803Y-3.0709
X7.4803Y-3.1693
X7.5299Y-4.311
X7.5433Y-1.8071
X7.5591Y-3.563
X7.5591Y-3.937
X7.5654Y-5.365
X7.5654Y-5.437
X7.5748Y-2.878
X7.5748Y-2.9764
X7.5748Y-3.0768
X7.5748Y-3.1772
X7.5748Y-3.3898
X7.5787Y-1.1811
X7.5787Y-1.378
X7.5787Y-1.6732
X7.6102Y-3.126
X7.6102Y-3.3642
X7.6116Y-3.7888
X7.6122Y-3.8839
X7.6122Y-4.2323
X7.624Y-3.4213
X7.624Y-3.5098
X7.7165Y-3.563
X7.7165Y-3.937
X7.7234Y-3.0276
X7.7244Y-3.3386
X7.7299Y-2.689
X7.748Y-2.9272
X7.748Y-3.313
X7.7697Y-3.5098
X7.7697Y-3.7303
X7.7697Y-3.8839
X7.7697Y-4.0965
X7.7733Y-2.827
X7.7736Y-3.2874
X7.7811Y-5.1224
X7.7811Y-5.437
X7.7835Y-1.8071
X7.7992Y-2.8091
X7.7992Y-3.0807
X7.8299Y-4.6165
X7.9035Y-3.6496
X7.9035Y-3.7598
X7.9035Y-4.0236
X7.9035Y-4.128
X7.9055Y-2.8602
X7.9055Y-3.1299
X7.9055Y-3.2618
X7.9134Y-3.563
X7.9134Y-3.937
X7.9299Y-4.5917
X7.9331Y-3.2303
X7.9341Y-2.9587
X7.9341Y-3.0157
X7.9587Y-2.8091
X7.9587Y-2.9094
X7.9587Y-3.0453
X7.9587Y-3.0807
X7.9587Y-3.1791
X7.9724Y-1.1811
X7.9724Y-1.378
X7.9724Y-1.5551
X7.9724Y-1.7717
X7.9724Y-1.9488
X7.9724Y-2.1457
X7.9724Y-2.3031
X7.9921Y-2.9075
X7.9921Y-2.9902
X7.9921Y-3.1791
X7.9921Y-3.3642
X8.0299Y-4.5681
X8.0906Y-2.0008
X8.0906Y-2.1654
X8.0906Y-3.4213
X8.0906Y-3.5453
X8.0906Y-3.5965
X8.0906Y-3.7303
X8.0906Y-3.7894
X8.0906Y-3.9193
X8.0906Y-3.9705
X8.0906Y-4.0965
X8.0906Y-4.2323
X8.1165Y-5.365
X8.1165Y-5.437
X8.1299Y-2.3031
X8.1299Y-2.7134
X8.1299Y-4.5437
X8.1693Y-3.4449
X8.1693Y-3.7008
X8.1693Y-3.7992
X8.1693Y-4.0748
X8.189Y-2.8091
X8.189Y-3.0807
X8.2299Y-4.5197
X8.2677Y-3.9705
X8.2677Y-4.0827
X8.2697Y-3.5965
X8.2697Y-3.7087
X8.2953Y-2.9587
X8.2953Y-3.0157
X8.2953Y-3.2303
X8.3071Y-1.1811
X8.3071Y-1.378
X8.3071Y-1.5748
X8.3071Y-2.126
X8.3071Y-2.3031
X8.3219Y-2.8583
X8.3219Y-3.1299
X8.3219Y-3.2618
X8.3299Y-4.4961
X8.3323Y-5.0988
X8.3323Y-5.437
X8.3465Y-2.8091
X8.3465Y-2.9094
X8.3465Y-3.0453
X8.3465Y-3.0807
X8.3465Y-3.1791
X8.3661Y-3.4449
X8.3661Y-3.7992
X8.3799Y-2.9094
X8.3799Y-2.9902
X8.3799Y-3.1791
X8.4299Y-4.4713
X8.437Y-3.5945
X8.437Y-3.6457
X8.437Y-3.9685
X8.437Y-4.0197
X8.4724Y-3.4941
X8.4724Y-3.6476
X8.4724Y-3.7598
X8.4823Y-3.8701
X8.4823Y-4.0217
X8.4823Y-4.128
X8.5039Y-1.1811
X8.5039Y-1.378
X8.5039Y-1.5748
X8.5039Y-1.7717
X8.5039Y-2.3031
X8.5299Y-4.4469
X8.563Y-3.7598
X8.5787Y-2.8091
X8.5787Y-3.0807
X8.6299Y-4.8098
X8.6319Y-4.252
X8.6319Y-4.3386
X8.6665Y-4.2902
X8.6665Y-4.3898
X8.6677Y-5.365
X8.6677Y-5.437
X8.6831Y-2.8583
X8.6831Y-3.1299
X8.6831Y-3.2618
X8.6969Y-3.4941
X8.6969Y-3.6476
X8.6969Y-3.7087
X8.6988Y-3.8681
X8.6988Y-4.0217
X8.6988Y-4.0827
X8.7008Y-1.1811
X8.7008Y-1.378
X8.7008Y-1.5748
X8.7008Y-1.7717
X8.7008Y-1.9488
X8.7008Y-2.126
X8.7008Y-2.3031
X8.7205Y-2.9587
X8.7205Y-3.0157
X8.7205Y-3.2303
X8.7299Y-4.7854
X8.7598Y-2.8091
X8.7598Y-2.9094
X8.7598Y-3.0807
X8.7598Y-3.1811
X8.7598Y-3.4449
X8.7598Y-3.7598
X8.8295Y-2.4248
X8.8299Y-4.7618
X8.878Y-2.9094
X8.878Y-3.1811
X8.878Y-3.3386
X8.8835Y-5.0752
X8.8835Y-5.437
X8.9299Y-4.7382
X8.9567Y-1.1811
X8.9567Y-1.378
X8.9567Y-1.5748
X8.9567Y-1.7717
X8.9567Y-1.9488
X8.9567Y-2.126
X8.9567Y-2.3031
X8.9567Y-2.4803
X8.9567Y-2.6772
X8.9567Y-3.7598
X8.9567Y-3.937
X8.9567Y-4.1142
X8.9685Y-2.9587
X8.9685Y-3.2618
X8.9764Y-4.2913
X8.9764Y-4.3898
X9.0256Y-4.2398
X9.0256Y-4.2902
X9.0256Y-4.3425
X9.0256Y-4.4528
X9.0299Y-4.7146
X9.0571Y-4.1528
X9.0571Y-4.2362
X9.0571Y-4.3937
X9.0846Y-2.8583
X9.0846Y-2.9587
X9.1102Y-3.0157
X9.1102Y-3.1299
X9.1102Y-3.2303
X9.1114Y-2.1654
X9.1114Y-2.5512
X9.1122Y-2.9094
X9.1122Y-2.8091
X9.1299Y-4.6906
X9.1437Y-2.9094
X9.1437Y-3.0453
X9.1437Y-3.0807
X9.1437Y-3.1811
X9.1535Y-1.1811
X9.1535Y-1.378
X9.1535Y-1.5748
X9.1535Y-1.7717
X9.1535Y-1.9488
X9.1535Y-2.126
X9.1535Y-2.3031
X9.1535Y-2.4803
X9.1535Y-2.6772
X9.1535Y-3.4449
X9.1535Y-3.7598
X9.1732Y-3.6417
X9.1732Y-4.0157
X9.1732Y-4.1142
X9.2189Y-5.365
X9.2189Y-5.437
X9.2299Y-4.6669
X9.2697Y-3.1811
X9.2697Y-3.313
X9.2913Y-3.6417
X9.2913Y-4.0157
X9.3299Y-4.6417
X9.3406Y-3.5945
X9.3406Y-3.6457
X9.3406Y-3.9705
X9.3406Y-4.0197
X9.3504Y-1.1811
X9.3504Y-1.7717
X9.3504Y-2.126
X9.3504Y-2.3031
X9.3504Y-2.4803
X9.3504Y-3.4449
X9.3504Y-3.7598
X9.3504Y-4.1142
X9.3504Y-4.4488
X9.3583Y-2.5512
X9.3583Y-2.7657
X9.3583Y-2.8091
X9.3583Y-3.0807
X9.4346Y-5.048
X9.4346Y-5.437
X9.4646Y-2.9587
X9.4646Y-3.0157
X9.4646Y-3.2303
X9.4724Y-3.5945
X9.4724Y-3.9685
X9.485Y-5.3776
X9.5Y-2.8091
X9.5Y-2.8583
X9.5Y-2.9094
X9.5Y-3.1299
X9.5Y-3.2618
X9.5157Y-3.4961
X9.5157Y-3.5965
X9.5157Y-3.7087
X9.5157Y-3.8701
X9.5157Y-3.9705
X9.5157Y-4.0827
X9.5157Y-4.3398
X9.5374Y-3.0807
X9.5374Y-3.1811
X9.5472Y-1.1811
X9.5472Y-1.7717
X9.5472Y-2.1654
X9.5472Y-2.4803
X9.5472Y-2.6772
X9.5472Y-3.4449
X9.5472Y-3.7598
X9.5472Y-4.4488
X9.6594Y-3.1811
X9.6594Y-3.2874
X9.6772Y-3.3898
X9.6772Y-3.4961
X9.6772Y-3.8701
X9.7057Y-4.24
X9.7059Y-3.7083
X9.7441Y-1.1811
X9.7441Y-1.378
X9.7441Y-1.5748
X9.7441Y-1.7717
X9.7441Y-1.9685
X9.7441Y-2.1654
X9.7441Y-2.3031
X9.7441Y-2.4803
X9.7441Y-2.6772
X9.7441Y-2.874
X9.7441Y-3.0709
X9.7441Y-3.2677
X9.7441Y-3.4646
X9.7441Y-3.6614
X9.7441Y-3.8583
X9.7441Y-4.0551
X9.7441Y-4.4488
X9.9409Y-2.874
X9.9409Y-3.0709
X9.9409Y-3.2677
X9.9409Y-3.4646
X9.9409Y-3.6614
X9.9449Y-3.8386
X9.9449Y-4.2402
X9.9449Y-4.5472
X10.0197Y-4.3402
X10.0197Y-4.685
T2
X9.5079Y-2.0276
X9.6063Y-1.9291
X9.7047Y-2.0276
X5.7759Y-2.9803
X5.9681Y-2.9803
X3.4055Y-4.7402
X3.5039Y-4.6417
X3.6024Y-4.7402
T3
X6.6535Y-1.2598
X6.6535Y-1.4567
X4.0157Y-1.2205
X4.0157Y-1.3205
X4.1157Y-1.2205
X4.1157Y-1.3205
X4.2157Y-1.2205
X4.2157Y-1.3205
T4
X4.9606Y-1.4764
X4.2717Y-4.9803
X8.2677Y-4.2323
X7.4803Y-4.2283
X3.4449Y-5.2362
X3.2087Y-4.2913
X9.9606Y-2.7165
X5.2953Y-1.4764
X4.626Y-1.4764
X7.874Y-4.2323
X9.9606Y-2.4803
X4.0354Y-4.9803
X10.0197Y-3.8386
X7.0866Y-4.2264
X4.9803Y-4.9803
X3.2087Y-5.2362
X9.9606Y-2.2441
X3.7992Y-4.9803
X5.2953Y-1.1614
X9.9606Y-2.0079
X3.4449Y-5.0
X5.4528Y-4.9803
X3.2087Y-4.7638
X4.9606Y-1.1614
X9.9606Y-1.7717
X4.7441Y-4.9803
X5.689Y-4.9803
X5.2165Y-4.9803
X9.9606Y-1.5354
X4.626Y-1.1614
X10.0197Y-4.2323
X3.2087Y-5.0
X4.5079Y-4.9803
T5
X3.622Y-1.1417
X3.622Y-1.2417
X3.622Y-1.3417
X3.622Y-1.4417
X3.4024Y-4.2717
X3.5024Y-4.2717
X3.6024Y-4.2717
X6.9299Y-2.5492
X6.9299Y-4.9508
X7.0299Y-2.5492
X7.0299Y-4.9508
X7.1299Y-2.5492
X7.1299Y-4.9508
X7.2299Y-2.5492
X7.2299Y-4.9508
X7.3299Y-2.5492
X7.3299Y-4.9508
X7.4299Y-2.5492
X7.4299Y-4.9508
X7.5299Y-2.5492
X7.5299Y-4.9508
X7.6299Y-2.5492
X7.6299Y-4.9508
X7.7299Y-2.5492
X7.7299Y-4.9508
X7.8299Y-2.5492
X7.8299Y-4.9508
X7.9299Y-2.5492
X7.9299Y-4.9508
X8.0299Y-2.5492
X8.0299Y-4.9508
X8.1299Y-2.5492
X8.1299Y-4.9508
X8.2299Y-2.5492
X8.2299Y-4.9508
X8.3299Y-2.5492
X8.3299Y-4.9508
X8.4299Y-2.5492
X8.4299Y-4.9508
X8.5299Y-2.5492
X8.5299Y-4.9508
X8.6299Y-2.5492
X8.6299Y-4.9508
X8.7299Y-2.5492
X8.7299Y-4.9508
X8.8299Y-2.5492
X8.8299Y-4.9508
X8.9299Y-4.9508
X9.0299Y-4.9508
X9.1299Y-4.9508
X9.2299Y-4.9508
X9.3299Y-4.9508
T6
X9.813Y-4.5472
X9.813Y-4.685
T7
X8.4646Y-2.0079
X9.2913Y-2.0079
T8
X3.3071Y-1.8425
X3.3071Y-2.0157
T9
X7.815Y-1.3976
X9.9213Y-5.4724
X9.9213Y-1.2205
X3.3071Y-5.4724
X6.6142Y-5.4724
X3.3071Y-1.2205
T5
G00X9.3819Y-1.4075
M15
G01X9.3819Y-1.5059
M16
G05
G00X9.5177Y-1.3386
M15
G01X9.6161Y-1.3386
M16
G05
G00X9.5177Y-1.5748
M15
G01X9.6161Y-1.5748
M16
G05
G00X3.3858Y-2.8445
M15
G01X3.3858Y-2.7461
M16
G05
G00X3.4547Y-2.9803
M15
G01X3.5531Y-2.9803
M16
G05
G00X3.622Y-2.8445
M15
G01X3.622Y-2.7461
M16
G05
G00X3.3858Y-3.3957
M15
G01X3.3858Y-3.2972
M16
G05
G00X3.4547Y-3.5315
M15
G01X3.5531Y-3.5315
M16
G05
G00X3.622Y-3.3957
M15
G01X3.622Y-3.2972
M16
G05
G00X8.5827Y-1.2697
M15
G01X8.5827Y-1.4862
M16
G05
G00X8.8583Y-1.2697
M15
G01X8.8583Y-1.4862
M16
G05
G00X3.3858Y-3.9469
M15
G01X3.3858Y-3.8484
M16
G05
G00X3.4547Y-4.0827
M15
G01X3.5531Y-4.0827
M16
G05
G00X3.622Y-3.9469
M15
G01X3.622Y-3.8484
M16
G05
T0
M30
